<?xml version="1.0" encoding="UTF-8"?>
<!DOCTYPE svg  PUBLIC '-//W3C//DTD SVG 1.1//EN'  'http://www.w3.org/Graphics/SVG/1.1/DTD/svg11.dtd'>
<svg enable-background="new 0 0 50 36" version="1.1" viewBox="0 0 50 36" xml:space="preserve" xmlns="http://www.w3.org/2000/svg">
<g fill="#fff">
	<path d="m34.1 22.4c-0.2 0.6-0.6 1.2-0.9 1.8-0.7 1.2-1.5 2.3-2.4 3.3-0.1 0.2-0.3 0.3-0.4 0.5-0.1 0.1-0.1 0.2-0.1 0.3 0.3 1.4 0.7 2.8 1 4.2 0.1 0.6 0.3 1.1 0.4 1.7 0 0.2 0 0.2-0.2 0.2-1.1 0.2-2.2 0.3-3.4 0.5-1.1 0.2-2.3 0.3-3.4 0.5-1 0.2-2 0.3-3 0.5h-0.1-3.1l-0.6-3.9c0-0.1-0.1-0.2-0.2-0.2-0.5-0.1-1.1-0.1-1.6-0.2-1.1-0.1-2.2-0.3-3.3-0.4-0.4 0-0.7-0.1-1.1-0.1-0.1 0-0.2-0.1-0.2-0.2 0.2-1.5 0.4-3.1 0.5-4.6l0.3-3c0-0.1 0-0.2-0.1-0.2-0.8-0.2-1.6-0.5-2.5-0.7-0.2-0.1-0.2-0.1-0.1-0.3 0.7-1.4 1.3-2.9 2-4.3 0.6-1.3 1.2-2.6 1.8-4 0.1-0.1 0.1-0.2 0-0.4-0.3-1.1-0.6-2.3-1-3.4 0-0.2 0-0.3 0.1-0.3 1.7-1 3.5-1.7 5.5-2.3 1.6-0.4 3.3-0.7 5-0.6 1.5 0.1 3 0.4 4.4 1 0.5 0.2 1 0.5 1.4 0.8 0.1 0.1 0.2 0.1 0.4 0s0.4-0.1 0.6-0.2c0.1 0 0.2-0.1 0.2-0.2v-0.3c0.1 0.1 0.1 0.1 0 0.1-0.3-0.2-0.6-0.3-0.9-0.5-0.1 0-0.1-0.1-0.1-0.3 0.3-0.5 0.5-0.9 0.7-1.4 0.1-0.1 0.1-0.2 0.3-0.1 0.3 0.2 0.6 0.3 0.9 0.5 0.1 0.1 0.2 0 0.3 0 0.3-0.2 0.3-0.4 0.2-0.7-0.1-0.2-0.2-0.5-0.2-0.7 0-0.1 0-0.2 0.1-0.2 0.5-0.2 1.1-0.3 1.6-0.5 0.1 0 0.2 0 0.2 0.1l0.3 0.9c0 0.1 0.1 0.1 0.2 0.2 0.3 0.1 0.5 0 0.6-0.4l0.3-0.6c0-0.1 0.1-0.1 0.2-0.1 0.5 0.3 1 0.5 1.5 0.8 0.1 0.1 0.1 0.1 0.1 0.2-0.2 0.3-0.3 0.6-0.4 0.8-0.1 0.1 0 0.2 0 0.3 0.2 0.3 0.4 0.4 0.7 0.2 0.2-0.1 0.4-0.1 0.6-0.2 0.1 0 0.2 0 0.2 0.1 0.2 0.6 0.4 1.1 0.6 1.6 0 0.1 0 0.2-0.1 0.2-0.3 0.1-0.6 0.2-0.9 0.3-0.1 0-0.2 0.1-0.2 0.2 0 0.5 0 0.5 0.4 0.7 0.2 0.1 0.4 0.2 0.5 0.3 0.1 0 0.1 0.1 0.1 0.2-0.3 0.5-0.5 1-0.8 1.5 0 0.1-0.1 0.1-0.2 0.1-0.3-0.1-0.5-0.3-0.8-0.4-0.1-0.1-0.2-0.1-0.3 0-0.3 0.2-0.4 0.4-0.2 0.7 0.1 0.2 0.1 0.4 0.2 0.6 0 0.1 0 0.2-0.1 0.2-0.5 0.2-1.1 0.3-1.6 0.5-0.1 0-0.2 0-0.2-0.1l-0.3-0.9c0-0.1-0.1-0.2-0.2-0.2-0.5-0.1-0.4-0.1-0.7 0.3 0 0.1-0.1 0.1-0.1 0.2-0.1 0.2-0.1 0.2-0.2 0-0.6-1-1.3-1.9-2.2-2.7-0.3-0.3-0.6-0.5-0.9-0.8-0.1 0.1-0.2 0.1-0.3 0.1-0.1 0.1 0 0.1 0 0.2 0.2 0.5 0.3 1 0.5 1.5 0 0.1 0.1 0.1 0.2 0.1 0.3-0.1 0.6-0.2 0.9-0.3 0.1 0 0.2 0 0.2 0.1v0.1c0.3 0.3 0.3 0.3 0.1 0.7l-0.3 0.6c-0.1 0.1 0 0.1 0.1 0.2 0.5 0.3 1 0.5 1.5 0.8h0.2c0-0.1 0.1-0.2 0.2-0.2s0.1 0.1 0.2 0.2c0.3 0.3 0.6 0.6 0.8 0.9 0.1 0.1 0.2 0.3 0.3 0.4s0.1 0.1 0.1 0c0.1-0.1 0.1-0.3 0.2-0.4 0-0.1 0.1-0.1 0.2-0.1 0.5 0.3 1 0.5 1.5 0.8 0.1 0.1 0.1 0.1 0.1 0.2-0.2 0.3-0.3 0.6-0.4 0.9-0.1 0.1 0 0.2 0 0.2 0.3 0.4 0.3 0.4 0.7 0.2 0.2-0.1 0.4-0.1 0.6-0.2 0.1 0 0.1 0 0.2 0.1 0.2 0.5 0.3 1.1 0.5 1.6 0 0.1 0 0.2-0.1 0.2-0.3 0.1-0.6 0.2-0.9 0.3-0.1 0-0.2 0.1-0.2 0.2v0.1c-0.1 0.4 0.1 0.5 0.4 0.6l0.6 0.3c0.1 0 0.1 0.1 0.1 0.2-0.3 0.5-0.5 1-0.8 1.5h-0.3c-0.2-0.1-0.5-0.2-0.7-0.4-0.2-0.1-0.3-0.1-0.4 0.1l-0.1 0.1c-0.3 0.1-0.2 0.3-0.1 0.6 0.1 0.2 0.1 0.4 0.2 0.7 0 0.1 0.1 0.1-0.1 0.2-0.3-0.1-0.7 0.1-1 0.1 0.1-0.2 0.1-0.3 0.2-0.5 0.3-0.7 0.5-1.4 0.6-2.2 0.1-0.9 0.1-1.8 0-2.7-0.2-0.9-0.5-1.7-0.9-2.5 0-0.1-0.1-0.2-0.2 0-0.1 0.3-0.3 0.3-0.6 0.3-0.2 0-0.3-0.1-0.3-0.3l-0.3-0.9c0-0.1-0.1-0.1-0.2-0.1-0.5 0.2-1 0.3-1.5 0.5-0.1 0-0.1 0.1-0.1 0.2 0.1 0.2 0.1 0.4 0.2 0.6 0.1 0.3 0.1 0.6-0.2 0.8-0.1 0.1-0.2 0.1-0.3 0-0.3-0.2-0.6-0.3-0.9-0.5-0.1-0.1-0.2 0-0.2 0.1-0.2 0.5-0.5 0.9-0.7 1.4-0.1 0.1 0 0.2 0.1 0.2l0.6 0.3c0.3 0.1 0.4 0.3 0.4 0.6 0 0.1-0.1 0.2-0.2 0.2-0.3 0.1-0.6 0.2-0.9 0.3-0.1 0-0.2 0.1-0.1 0.2 0.2 0.5 0.3 1 0.5 1.5 0 0.1 0.1 0.1 0.2 0.1 0.2-0.1 0.5-0.2 0.7-0.2 0.2-0.1 0.4-0.1 0.5 0.1l0.1 0.1c0.1 0.1 0.1 0.2 0 0.3-0.2 0.3-0.3 0.6-0.4 0.8-0.1 0.1-0.1 0.2 0.1 0.2 0.5 0.2 1 0.5 1.4 0.7 0.1 0.1 0.2 0 0.2-0.1 0.1-0.3 0.3-0.6 0.4-0.8 0.2-0.3 0.4 0 0.6-0.1 0.1 0 0.2 0 0.2 0.1s0 0.1 0.1 0.2c0.1 0.2 0.2 0.5 0.2 0.7 0 0.1 0.1 0.1 0.2 0.1 0.1 0.4 0.3 0.4 0.5 0.3zm-20.9 7.5c0-0.2 0.1-0.4 0.1-0.6 0.1-1.1 0.3-2.2 0.4-3.3 0-0.1 0.1-0.2 0.2-0.1 0.9 0.1 1.8 0.2 2.7 0.4 0.1 0 0.2 0.1 0.2 0.2 0.1 0.3 0.1 0.7 0.2 1 0 0.1 0.1 0.2 0.2 0.2s0.2-0.1 0.2-0.2v-0.1c-0.1-0.6-0.2-1.2-0.4-1.8l-0.3-1.5c0-0.1-0.1-0.2-0.2-0.2s-0.2 0.1-0.1 0.3c0.1 0.5 0.2 1.1 0.3 1.6 0 0.2 0 0.2-0.2 0.2-0.4-0.1-0.9-0.1-1.3-0.2s-0.8-0.1-1.2-0.2c-0.1 0-0.2 0-0.2-0.2 0.1-0.8 0.2-1.6 0.3-2.5 0-0.3 0-0.3-0.2-0.4-0.8-0.3-1.6-0.6-2.4-0.8-0.1 0-0.2-0.1-0.1-0.2l0.3-0.6c1.1-2.2 2.2-4.4 3.2-6.6 0.1-0.1 0.1-0.2 0-0.4-0.2-1-0.5-2-0.7-3-0.1-0.3-0.1-0.3 0.2-0.4l1.8-0.9c1.1-0.5 2.2-0.8 3.4-1 0.1 0 0.2 0 0.3 0.1 0.1 0.3 0.2 0.4 0.3 0.6 0.3 0.4 0.2 0.7-0.2 0.9-0.1 0.1-0.2 0.1-0.3 0.1-0.4-0.2-0.8-0.3-1.2-0.4-0.1 0-0.2 0-0.2 0.1-0.2 0.6-0.5 1.3-0.7 1.9-0.1 0.1 0 0.2 0.1 0.3 0.4 0.1 0.8 0.3 1.2 0.4 0.1 0 0.2 0.1 0.2 0.2v0.4c0 0.1 0 0.2-0.1 0.2l-1.2 0.6c-0.1 0.1-0.1 0.1-0.1 0.2 0.3 0.6 0.6 1.2 0.9 1.9 0.1 0.1 0.1 0.2 0.2 0.1 0.4-0.2 0.8-0.4 1.1-0.6 0.1 0 0.2-0.1 0.2 0l0.4 0.4c0.1 0.1 0.1 0.2 0.1 0.3-0.2 0.4-0.3 0.8-0.4 1.2 0 0.1 0 0.2 0.1 0.2 0.6 0.2 1.3 0.5 1.9 0.7 0.1 0.1 0.2 0 0.2-0.1 0.1-0.4 0.3-0.8 0.4-1.1 0-0.1 0.1-0.2 0.3-0.2h0.5c0.1 0 0.2 0 0.3 0.2 0.2 0.4 0.3 0.7 0.5 1.1 0.1 0.1 0.1 0.1 0.2 0.1 0.6-0.3 1.3-0.6 1.9-0.9 0.1-0.1 0.1-0.1 0.1-0.2-0.2-0.4-0.3-0.7-0.5-1.1v-0.2l0.4-0.4c0.1-0.1 0.1-0.1 0.2-0.1 0.4 0.1 0.7 0.3 1.1 0.4 0.1 0.1 0.2 0 0.3-0.1 0.2-0.6 0.5-1.3 0.7-1.9 0.1-0.1 0-0.2-0.1-0.2-0.4-0.1-0.7-0.3-1.1-0.4-0.1 0-0.2-0.1-0.2-0.2v-0.5c0-0.1 0-0.2 0.2-0.2 0.4-0.2 0.7-0.3 1.1-0.5 0.1-0.1 0.2-0.1 0.1-0.2-0.3-0.6-0.6-1.3-0.9-1.9 0-0.1-0.1-0.1-0.2-0.1-0.4 0.2-0.7 0.3-1.1 0.5-0.2 0.1-0.3 0.1-0.4-0.1l-0.3-0.3c-0.1-0.1-0.1-0.1-0.1-0.3 0.1-0.4 0.3-0.8 0.4-1.1 0.1-0.1 0-0.2-0.1-0.3-0.6-0.2-1.2-0.5-1.9-0.7-0.2-0.1-0.2-0.1-0.3 0.2-0.1 0.4-0.3 0.8-0.4 1.1 0 0.1-0.1 0.2-0.2 0.2h-0.5c-0.1 0-0.2 0-0.3-0.1-0.2-0.4-0.4-0.8-0.5-1.1-0.1-0.1-0.1-0.2-0.3-0.1-0.6 0.3-1.2 0.6-1.8 0.8-0.1 0-0.2 0.1-0.2 0.2s-0.1 0.1-0.1 0.1c-0.3 0.1-0.6 0.1-0.9 0.2-1.6 0.4-3.1 1-4.6 1.9-0.1 0.1-0.2 0.2-0.1 0.3 0.3 1 0.5 2.1 0.8 3.1v0.3c-0.4 0.9-0.9 1.8-1.3 2.7-0.8 1.6-1.5 3.1-2.3 4.7-0.1 0.1 0 0.2 0.1 0.2l2.4 0.9c0.2 0.1 0.2 0.1 0.2 0.3-0.1 0.8-0.2 1.7-0.3 2.5-0.2 1.5-0.4 3-0.6 4.4 0 0.1 0 0.2 0.2 0.2 1.9 0.2 3.7 0.5 5.6 0.7 0.3 0 0.3 0 0.3 0.3 0.2 1.2 0.4 2.4 0.5 3.5 0 0.1 0.1 0.2 0.2 0.1 0.5-0.1 1.1-0.2 1.6-0.2 1.5-0.2 3-0.5 4.5-0.7 1.3-0.2 2.5-0.4 3.8-0.6 0.4-0.1 0.4-0.1 0.3-0.4-0.4-1.8-0.8-3.5-1.3-5.3 0-0.1 0-0.2 0.1-0.3 1-0.8 1.9-1.7 2.6-2.7 0.7-0.9 1.3-2 1.5-3.2 0-0.1 0.1-0.2 0-0.2s-0.2 0-0.2 0.1v0.1c-0.2 0.8-0.5 1.6-0.9 2.3-0.8 1.3-1.9 2.4-3 3.4-0.3 0.2-0.2 0.4-0.2 0.7 0.4 1.7 0.8 3.3 1.2 5 0.1 0.3 0.1 0.3-0.2 0.3h-0.2c-1.6 0.2-3.1 0.5-4.7 0.7-1.5 0.2-3.1 0.5-4.6 0.7-0.2 0-0.2 0-0.2-0.2-0.2-1.2-0.4-2.4-0.5-3.6 0-0.1-0.1-0.2-0.2-0.2-0.2 0-0.3 0-0.5-0.1-1-0.1-2-0.3-3.1-0.4-0.7-0.1-1.4-0.2-2.1-0.3-0.3 0.2-0.4 0.1-0.3 0zm20.2-19.9c0.8 0 1.4-0.6 1.4-1.4s-0.6-1.4-1.3-1.4c-0.8 0-1.4 0.6-1.4 1.4s0.6 1.4 1.3 1.4zm-7.9 14.9c0.3 0 0.7 0 1-0.1 0.6-0.2 1-0.6 1.3-1.2s0.3-1.2 0.2-1.9c-0.1-1-1.1-1.4-1.9-1.2-0.6 0.2-1 0.6-1.4 1.1-0.1 0.1-0.1 0.2 0 0.3s0.2 0 0.2 0l0.1-0.1c0.2-0.3 0.4-0.5 0.6-0.6 0.3-0.3 0.7-0.4 1.1-0.3s0.7 0.3 0.8 0.7 0.1 0.8 0.1 1.2c-0.2 1.2-1 1.8-2.2 1.8-0.5 0-1-0.1-1.4-0.2-0.1 0-0.2 0-0.3 0.1 0 0.1 0.1 0.2 0.2 0.2 0.5 0.2 1 0.3 1.6 0.2zm-5.9-5.3c0-0.1 0-0.1-0.1-0.2s-0.1-0.2-0.2-0.3c-0.5-0.7-1.2-1.2-2.2-1.2-0.7 0-1.4 0.2-2 0.6-0.1 0.1-0.3 0.1-0.2 0.3s0.3 0.1 0.4 0c0.6-0.3 1.2-0.6 1.9-0.5 0.6 0 1.1 0.3 1.5 0.7 0.2 0.2 0.3 0.4 0.5 0.6 0.1 0.1 0.1 0.1 0.2 0.1 0.2 0 0.2 0 0.2-0.1zm-2.6-0.3h-0.2c-0.2 0-0.4 0.2-0.5 0.4 0 0.2 0.1 0.4 0.3 0.5s0.4 0.1 0.6 0 0.4-0.3 0.4-0.5-0.2-0.4-0.4-0.5c0 0.1-0.1 0.1-0.2 0.1z"/>
	<path d="m40.3 20.1c-0.1 0-0.3-0.1-0.4-0.1-0.1-0.1-0.2 0-0.2 0.1-0.1 0.5-0.1 0.9-0.3 1.4-0.4 1.4-1.2 2.5-2.6 3-0.7 0.3-1.4 0.4-2.2 0.3-0.2 0-0.3-0.1-0.3-0.3s0.2-0.3 0.4-0.2c1.4 0.1 2.6-0.3 3.5-1.5 0.3-0.4 0.6-1 0.7-1.5 0.1-0.4 0.2-0.8 0.2-1.1 0-0.2 0-0.2-0.2-0.1s-0.5 0.1-0.7 0.2v-0.1c0.5-0.5 0.8-1.2 1.2-1.8 0-0.1 0.1-0.2 0.1-0.2 0.1 0 0.1 0.1 0.1 0.2 0.2 0.5 0.4 1 0.7 1.4v0.3z"/>
	<path d="m32.5 2.4c0.1-0.2 0.2-0.5 0.3-0.7 0.1-0.1 0-0.2-0.1-0.2-0.6 0-1.2 0-1.7 0.2-1.3 0.4-2.2 1.2-2.7 2.5-0.2 0.4-0.3 0.8-0.3 1.3 0 0.2-0.1 0.3-0.3 0.3s-0.3-0.1-0.3-0.3c0.1-1 0.3-1.9 0.9-2.7s1.5-1.3 2.5-1.6c0.6-0.2 1.2-0.2 1.8-0.2 0.2 0 0.2 0 0.2-0.2-0.1-0.2-0.1-0.5-0.2-0.7v-0.1l0.3 0.3c0.5 0.4 1.1 0.7 1.6 1 0 0 0.1 0 0.1 0.1s-0.1 0.1-0.1 0.1c-0.7 0.2-1.4 0.5-2 0.9z"/>
	<path d="m20.6 6.3c-0.2-0.1-0.5-0.2-0.7-0.3-0.5-0.2-1-0.3-1.5-0.3h-0.1c0-0.1 0.1-0.1 0.1-0.1 0.5-0.4 1-0.8 1.4-1.3l0.3-0.3v0.6c0 0.4 0 0.4 0.3 0.2 0.7-0.3 1.5-0.4 2.2-0.4 0.9 0 1.7 0.3 2.4 0.9 0.1 0.1 0.2 0.2 0.3 0.4 0.1 0.1 0.1 0.2-0.1 0.3-0.1 0.1-0.3 0.1-0.4 0-0.5-0.6-1.1-0.9-1.8-1s-1.3 0-2 0.2c-0.3 0.1-0.5 0.1-0.7 0.2-0.1 0.1-0.1 0.1-0.1 0.2 0.2 0.3 0.3 0.5 0.4 0.7 0.1 0 0.1 0 0 0z"/>
	<path d="m25 12.9c0 1-0.8 1.7-1.7 1.7-1 0-1.8-0.8-1.8-1.8 0-0.9 0.8-1.7 1.7-1.7 1 0 1.8 0.8 1.8 1.8z"/>
	<path d="m34.4 18.1c0 0.8-0.6 1.4-1.4 1.4s-1.4-0.6-1.4-1.4 0.6-1.4 1.4-1.4 1.4 0.6 1.4 1.4z"/>
</g>
</svg>
